<?xml version="1.0" standalone="no"?>
<!DOCTYPE svg PUBLIC "-//W3C//DTD SVG 20010904//EN"
 "http://www.w3.org/TR/2001/REC-SVG-20010904/DTD/svg10.dtd">
<svg version="1.0" xmlns="http://www.w3.org/2000/svg"
 width="1280.000000pt" height="256.000000pt" viewBox="0 0 1280.000000 256.000000"
 preserveAspectRatio="xMidYMid meet">

<g transform="translate(0.000000,256.000000) scale(0.100000,-0.100000)"
fill="#000000" stroke="none">
<path d="M785 2450 c-11 -4 -29 -6 -41 -3 -43 9 -70 -49 -38 -82 25 -24 57
-15 69 20 5 17 14 33 20 37 17 13 104 9 140 -6 55 -23 121 -100 169 -197 l45
-90 -32 -29 c-18 -15 -30 -30 -27 -33 3 -2 30 -1 60 4 76 11 212 10 290 -1 35
-5 67 -7 70 -4 3 3 -9 19 -27 34 l-32 29 45 90 c48 97 114 174 169 197 36 15
123 19 140 6 6 -4 15 -20 20 -37 12 -35 44 -44 69 -20 33 34 14 78 -36 82 -18
2 -61 6 -95 9 -112 11 -199 -49 -280 -194 -22 -37 -33 -50 -33 -36 0 26 -40
64 -66 64 -25 0 -64 -40 -64 -65 0 -10 6 -26 14 -34 13 -14 10 -16 -34 -16
-44 0 -47 2 -34 16 8 8 14 25 14 36 0 25 -40 63 -66 63 -25 0 -64 -40 -64 -66
0 -11 -14 5 -33 38 -75 134 -161 198 -262 197 -27 0 -59 -4 -70 -9z m435 -205
c5 3 10 13 10 22 0 14 3 14 20 -2 24 -22 26 -52 3 -77 -20 -23 -50 -23 -77 -1
-17 15 -17 13 2 -8 19 -22 20 -27 8 -32 -31 -12 -39 83 -9 116 17 18 17 18 25
-3 4 -12 12 -18 18 -15z m170 0 c5 3 10 14 10 23 0 14 3 14 20 -3 32 -33 27
-131 -6 -118 -12 5 -11 10 8 32 19 21 19 23 2 8 -26 -21 -52 -22 -76 0 -23 20
-23 51 -1 75 17 19 17 19 25 -2 4 -12 12 -18 18 -15z"/>
<path d="M3345 2450 c-11 -4 -29 -6 -41 -3 -43 9 -70 -49 -38 -82 25 -24 57
-15 69 20 5 17 14 33 20 37 17 13 104 9 140 -6 55 -23 121 -100 169 -197 l45
-90 -32 -29 c-18 -15 -30 -30 -27 -33 3 -2 30 -1 60 4 76 11 212 10 290 -1 35
-5 67 -7 70 -4 3 3 -9 19 -27 34 l-32 29 45 90 c48 97 114 174 169 197 36 15
123 19 140 6 6 -4 15 -20 20 -37 12 -35 44 -44 69 -20 33 34 14 78 -36 82 -18
2 -61 6 -95 9 -112 11 -199 -49 -280 -194 -22 -37 -33 -50 -33 -36 0 26 -40
64 -66 64 -25 0 -64 -40 -64 -65 0 -10 6 -26 14 -34 13 -14 10 -16 -34 -16
-44 0 -47 2 -34 16 8 8 14 25 14 36 0 25 -40 63 -66 63 -25 0 -64 -40 -64 -66
0 -11 -14 5 -33 38 -75 134 -161 198 -262 197 -27 0 -59 -4 -70 -9z m435 -205
c5 3 10 13 10 22 0 14 3 14 20 -2 24 -22 26 -52 3 -77 -20 -23 -50 -23 -77 -1
-17 15 -17 13 2 -8 19 -22 20 -27 8 -32 -31 -12 -39 83 -9 116 17 18 17 18 25
-3 4 -12 12 -18 18 -15z m170 0 c5 3 10 14 10 23 0 14 3 14 20 -3 32 -33 27
-131 -6 -118 -12 5 -11 10 8 32 19 21 19 23 2 8 -26 -21 -52 -22 -76 0 -23 20
-23 51 -1 75 17 19 17 19 25 -2 4 -12 12 -18 18 -15z"/>
<path d="M5905 2450 c-11 -4 -29 -6 -41 -3 -43 9 -70 -49 -38 -82 25 -24 57
-15 69 20 5 17 14 33 20 37 17 13 104 9 140 -6 55 -23 121 -100 169 -197 l45
-90 -32 -29 c-18 -15 -30 -30 -27 -33 3 -2 30 -1 60 4 76 11 212 10 290 -1 35
-5 67 -7 70 -4 3 3 -9 19 -27 34 l-32 29 45 90 c48 97 114 174 169 197 36 15
123 19 140 6 6 -4 15 -20 20 -37 12 -35 44 -44 69 -20 33 34 14 78 -36 82 -18
2 -61 6 -95 9 -112 11 -199 -49 -280 -194 -22 -37 -33 -50 -33 -36 0 26 -40
64 -66 64 -25 0 -64 -40 -64 -65 0 -10 6 -26 14 -34 13 -14 10 -16 -34 -16
-44 0 -47 2 -34 16 8 8 14 25 14 36 0 25 -40 63 -66 63 -25 0 -64 -40 -64 -66
0 -11 -14 5 -33 38 -75 134 -161 198 -262 197 -27 0 -59 -4 -70 -9z m435 -205
c5 3 10 13 10 22 0 14 3 14 20 -2 24 -22 26 -52 3 -77 -20 -23 -50 -23 -77 -1
-17 15 -17 13 2 -8 19 -22 20 -27 8 -32 -31 -12 -39 83 -9 116 17 18 17 18 25
-3 4 -12 12 -18 18 -15z m170 0 c5 3 10 14 10 23 0 14 3 14 20 -3 32 -33 27
-131 -6 -118 -12 5 -11 10 8 32 19 21 19 23 2 8 -26 -21 -52 -22 -76 0 -23 20
-23 51 -1 75 17 19 17 19 25 -2 4 -12 12 -18 18 -15z"/>
<path d="M8465 2450 c-11 -4 -29 -6 -41 -3 -43 9 -70 -49 -38 -82 25 -24 57
-15 69 20 5 17 14 33 20 37 17 13 104 9 140 -6 55 -23 121 -100 169 -197 l45
-90 -32 -29 c-18 -15 -30 -30 -27 -33 3 -2 30 -1 60 4 76 11 212 10 290 -1 35
-5 67 -7 70 -4 3 3 -9 19 -27 34 l-32 29 45 90 c48 97 114 174 169 197 36 15
123 19 140 6 6 -4 15 -20 20 -37 12 -35 44 -44 69 -20 33 34 14 78 -36 82 -18
2 -61 6 -95 9 -112 11 -199 -49 -280 -194 -22 -37 -33 -50 -33 -36 0 26 -40
64 -66 64 -25 0 -64 -40 -64 -65 0 -10 6 -26 14 -34 13 -14 10 -16 -34 -16
-44 0 -47 2 -34 16 8 8 14 25 14 36 0 25 -40 63 -66 63 -25 0 -64 -40 -64 -66
0 -11 -14 5 -33 38 -75 134 -161 198 -262 197 -27 0 -59 -4 -70 -9z m435 -205
c5 3 10 13 10 22 0 14 3 14 20 -2 24 -22 26 -52 3 -77 -20 -23 -50 -23 -77 -1
-17 15 -17 13 2 -8 19 -22 20 -27 8 -32 -31 -12 -39 83 -9 116 17 18 17 18 25
-3 4 -12 12 -18 18 -15z m170 0 c5 3 10 14 10 23 0 14 3 14 20 -3 32 -33 27
-131 -6 -118 -12 5 -11 10 8 32 19 21 19 23 2 8 -26 -21 -52 -22 -76 0 -23 20
-23 51 -1 75 17 19 17 19 25 -2 4 -12 12 -18 18 -15z"/>
<path d="M11025 2450 c-11 -4 -29 -6 -41 -3 -43 9 -70 -49 -38 -82 25 -24 57
-15 69 20 5 17 14 33 20 37 17 13 104 9 140 -6 55 -23 121 -100 169 -197 l45
-90 -32 -29 c-18 -15 -30 -30 -27 -33 3 -2 30 -1 60 4 76 11 212 10 290 -1 35
-5 67 -7 70 -4 3 3 -9 19 -27 34 l-32 29 45 90 c48 97 114 174 169 197 36 15
123 19 140 6 6 -4 15 -20 20 -37 12 -35 44 -44 69 -20 33 34 14 78 -36 82 -18
2 -61 6 -95 9 -112 11 -199 -49 -280 -194 -22 -37 -33 -50 -33 -36 0 26 -40
64 -66 64 -25 0 -64 -40 -64 -65 0 -10 6 -26 14 -34 13 -14 10 -16 -34 -16
-44 0 -47 2 -34 16 8 8 14 25 14 36 0 25 -40 63 -66 63 -25 0 -64 -40 -64 -66
0 -11 -14 5 -33 38 -75 134 -161 198 -262 197 -27 0 -59 -4 -70 -9z m435 -205
c5 3 10 13 10 22 0 14 3 14 20 -2 24 -22 26 -52 3 -77 -20 -23 -50 -23 -77 -1
-17 15 -17 13 2 -8 19 -22 20 -27 8 -32 -31 -12 -39 83 -9 116 17 18 17 18 25
-3 4 -12 12 -18 18 -15z m170 0 c5 3 10 14 10 23 0 14 3 14 20 -3 32 -33 27
-131 -6 -118 -12 5 -11 10 8 32 19 21 19 23 2 8 -26 -21 -52 -22 -76 0 -23 20
-23 51 -1 75 17 19 17 19 25 -2 4 -12 12 -18 18 -15z"/>
<path d="M1220 1998 c-55 -29 -81 -64 -87 -119 -5 -41 -2 -47 38 -90 55 -58
110 -78 169 -60 81 24 129 94 115 168 -6 31 -4 34 13 29 23 -8 40 23 20 36
-20 12 -26 10 -33 -12 -6 -19 -8 -18 -33 11 -51 61 -127 75 -202 37z m144 -2
c90 -38 113 -168 39 -226 -72 -57 -160 -48 -226 24 -35 37 -38 45 -34 83 6 57
30 91 80 114 50 22 96 24 141 5z"/>
<path d="M3780 1998 c-55 -29 -81 -64 -87 -119 -5 -41 -2 -47 38 -90 55 -58
110 -78 169 -60 81 24 129 94 115 168 -6 31 -4 34 13 29 23 -8 40 23 20 36
-20 12 -26 10 -33 -12 -6 -19 -8 -18 -33 11 -51 61 -127 75 -202 37z m144 -2
c90 -38 113 -168 39 -226 -72 -57 -160 -48 -226 24 -35 37 -38 45 -34 83 6 57
30 91 80 114 50 22 96 24 141 5z"/>
<path d="M6340 1998 c-55 -29 -81 -64 -87 -119 -5 -41 -2 -47 38 -90 55 -58
110 -78 169 -60 81 24 129 94 115 168 -6 31 -4 34 13 29 23 -8 40 23 20 36
-20 12 -26 10 -33 -12 -6 -19 -8 -18 -33 11 -51 61 -127 75 -202 37z m144 -2
c90 -38 113 -168 39 -226 -72 -57 -160 -48 -226 24 -35 37 -38 45 -34 83 6 57
30 91 80 114 50 22 96 24 141 5z"/>
<path d="M8900 1998 c-55 -29 -81 -64 -87 -119 -5 -41 -2 -47 38 -90 55 -58
110 -78 169 -60 81 24 129 94 115 168 -6 31 -4 34 13 29 23 -8 40 23 20 36
-20 12 -26 10 -33 -12 -6 -19 -8 -18 -33 11 -51 61 -127 75 -202 37z m144 -2
c90 -38 113 -168 39 -226 -72 -57 -160 -48 -226 24 -35 37 -38 45 -34 83 6 57
30 91 80 114 50 22 96 24 141 5z"/>
<path d="M11460 1998 c-55 -29 -81 -64 -87 -119 -5 -41 -2 -47 38 -90 55 -58
110 -78 169 -60 81 24 129 94 115 168 -6 31 -4 34 13 29 23 -8 40 23 20 36
-20 12 -26 10 -33 -12 -6 -19 -8 -18 -33 11 -51 61 -127 75 -202 37z m144 -2
c90 -38 113 -168 39 -226 -72 -57 -160 -48 -226 24 -35 37 -38 45 -34 83 6 57
30 91 80 114 50 22 96 24 141 5z"/>
<path d="M1105 1700 c10 -11 38 -33 62 -48 38 -24 43 -31 43 -63 0 -36 0 -36
-57 -48 -75 -16 -207 -80 -259 -125 l-41 -35 -159 160 c-87 87 -164 159 -171
159 -31 0 -3 -35 146 -184 l159 -159 -46 -56 c-61 -75 -108 -180 -129 -290
l-18 -91 -202 0 c-174 0 -203 -2 -203 -15 0 -13 29 -15 204 -15 l203 0 7 -62
c10 -86 39 -181 78 -251 l33 -58 -157 -157 c-148 -146 -176 -182 -146 -182 7
0 83 70 168 155 l155 155 55 -56 c96 -98 191 -153 322 -184 46 -11 112 -20
148 -20 36 0 102 9 148 20 131 31 226 86 322 184 l55 56 155 -155 c85 -85 161
-155 168 -155 30 0 2 36 -146 182 l-157 157 33 58 c39 70 68 165 78 251 l7 62
203 0 c175 0 204 2 204 15 0 13 -29 15 -202 15 l-203 0 -18 91 c-21 110 -68
215 -129 290 l-46 56 159 159 c149 149 177 184 146 184 -7 0 -84 -72 -171
-159 l-159 -160 -41 35 c-52 45 -184 109 -258 125 -58 12 -58 12 -58 48 0 32
5 39 43 63 24 15 52 37 62 48 17 19 17 19 -36 12 -30 -4 -101 -7 -159 -7 -58
0 -129 3 -159 7 -53 7 -53 7 -36 -12z"/>
<path d="M3665 1700 c10 -11 38 -33 62 -48 38 -24 43 -31 43 -63 0 -36 0 -36
-57 -48 -75 -16 -207 -80 -259 -125 l-41 -35 -159 160 c-87 87 -164 159 -171
159 -31 0 -3 -35 146 -184 l159 -159 -46 -56 c-47 -58 -104 -170 -117 -230
l-7 -34 -162 162 c-89 88 -167 161 -174 161 -31 0 -1 -37 156 -192 l167 -167
1 -113 c1 -128 21 -213 76 -311 l33 -58 -157 -157 c-148 -146 -176 -182 -146
-182 7 0 83 70 168 155 l155 155 55 -56 c96 -98 191 -153 322 -184 46 -11 112
-20 148 -20 36 0 102 9 148 20 131 31 226 86 322 184 l55 56 155 -155 c85 -85
161 -155 168 -155 30 0 2 36 -146 182 l-157 157 33 58 c55 98 75 183 76 311
l1 113 168 167 c156 155 186 192 155 192 -7 0 -85 -73 -174 -161 l-162 -162
-7 34 c-13 60 -70 172 -117 230 l-46 56 159 159 c149 149 177 184 146 184 -7
0 -84 -72 -171 -159 l-159 -160 -41 35 c-52 45 -184 109 -258 125 -58 12 -58
12 -58 48 0 32 5 39 43 63 24 15 52 37 62 48 17 19 17 19 -36 12 -30 -4 -101
-7 -159 -7 -58 0 -129 3 -159 7 -53 7 -53 7 -36 -12z"/>
<path d="M6225 1700 c10 -11 38 -33 62 -48 38 -24 43 -31 43 -63 0 -36 0 -36
-57 -48 -71 -16 -205 -79 -255 -121 l-38 -31 -275 1 c-240 0 -275 -1 -275 -15
0 -13 33 -15 260 -15 l260 0 -47 -57 c-47 -59 -105 -172 -118 -230 l-7 -33
-239 0 c-206 0 -239 -2 -239 -15 0 -13 33 -15 233 -15 l232 0 1 -118 c0 -133
20 -215 76 -315 l33 -58 -157 -157 c-148 -146 -176 -182 -146 -182 7 0 83 70
168 155 l155 155 55 -56 c96 -98 191 -153 322 -184 46 -11 112 -20 148 -20 36
0 102 9 148 20 131 31 226 86 322 184 l55 56 155 -155 c85 -85 161 -155 168
-155 30 0 2 36 -146 182 l-157 157 33 58 c56 100 76 182 76 315 l1 118 233 0
c199 0 232 2 232 15 0 13 -33 15 -239 15 l-239 0 -7 33 c-13 58 -71 171 -118
230 l-47 57 260 0 c227 0 260 2 260 15 0 14 -35 15 -275 15 l-275 -1 -38 31
c-50 42 -184 105 -254 121 -58 12 -58 12 -58 48 0 32 5 39 43 63 24 15 52 37
62 48 17 19 17 19 -36 12 -30 -4 -101 -7 -159 -7 -58 0 -129 3 -159 7 -53 7
-53 7 -36 -12z"/>
<path d="M8785 1700 c10 -11 38 -33 62 -48 38 -24 43 -31 43 -63 0 -36 0 -36
-57 -48 -70 -15 -200 -77 -266 -126 l-48 -36 -275 1 c-240 0 -274 -1 -274 -15
0 -13 34 -15 262 -15 l262 0 -26 -27 c-46 -49 -116 -210 -135 -310 l-18 -93
-202 0 c-174 0 -203 -2 -203 -15 0 -13 29 -15 204 -15 l203 0 7 -62 c10 -91
33 -163 77 -245 l38 -73 -259 0 c-227 0 -260 -2 -260 -15 0 -14 34 -15 271
-15 l271 1 57 -56 c95 -93 186 -145 314 -175 104 -25 190 -25 294 0 128 30
219 82 314 175 l57 56 271 -1 c237 0 271 1 271 15 0 13 -33 15 -260 15 l-259
0 38 72 c44 83 67 155 77 246 l7 62 203 0 c175 0 204 2 204 15 0 13 -29 15
-202 15 l-203 0 -18 93 c-19 100 -89 261 -135 310 l-26 27 262 0 c228 0 262 2
262 15 0 14 -34 15 -274 15 l-275 -1 -48 36 c-66 49 -196 111 -265 126 -58 12
-58 12 -58 48 0 32 5 39 43 63 24 15 52 37 62 48 17 19 17 19 -36 12 -30 -4
-101 -7 -159 -7 -58 0 -129 3 -159 7 -53 7 -53 7 -36 -12z"/>
<path d="M11345 1700 c10 -11 38 -33 62 -48 38 -24 43 -31 43 -63 0 -36 0 -36
-57 -48 -70 -15 -200 -77 -266 -126 l-48 -36 -275 1 c-240 0 -274 -1 -274 -15
0 -13 34 -15 262 -15 l262 0 -26 -27 c-46 -49 -116 -210 -135 -310 l-18 -93
-202 0 c-174 0 -203 -2 -203 -15 0 -13 29 -15 204 -15 l203 0 7 -62 c10 -86
39 -181 78 -251 l33 -58 -157 -157 c-148 -146 -176 -182 -146 -182 7 0 83 70
168 155 l155 155 55 -56 c96 -98 191 -153 322 -184 46 -11 112 -20 148 -20 36
0 102 9 148 20 131 31 226 86 322 184 l55 56 155 -155 c85 -85 161 -155 168
-155 30 0 2 36 -146 182 l-157 157 33 58 c39 70 68 165 78 251 l7 62 203 0
c175 0 204 2 204 15 0 13 -29 15 -202 15 l-203 0 -18 93 c-19 100 -89 261
-135 310 l-26 27 262 0 c228 0 262 2 262 15 0 14 -34 15 -274 15 l-275 -1 -48
36 c-66 49 -196 111 -265 126 -58 12 -58 12 -58 48 0 32 5 39 43 63 24 15 52
37 62 48 17 19 17 19 -36 12 -30 -4 -101 -7 -159 -7 -58 0 -129 3 -159 7 -53
7 -53 7 -36 -12z"/>
</g>
</svg>
